<svg xmlns="http://www.w3.org/2000/svg" xmlns:xlink="http://www.w3.org/1999/xlink" viewBox="0 0 66.94 77.36"><defs><style>.cls-1{fill:#fff;}.cls-2{mask:url(#mask);}</style><mask id="mask" x="0" y="0" width="66.94" height="77.36" maskUnits="userSpaceOnUse"><polygon class="cls-1" points="63.3 51.71 63.27 51.67 55.78 38.71 63.3 51.71"/><polygon class="cls-1" points="11.15 19.39 5.58 29.04 0 19.39 11.15 19.39"/><polygon class="cls-1" points="22.31 19.39 11.16 38.71 11.15 38.7 16.62 29.23 22.3 19.39 22.31 19.39"/><path class="cls-1" d="M63.27,51.67l-7.49-13h0L33.47.07,0,58H66.94ZM25.1,33.87l8.37-14.48V38.71L16.73,48.37Z"/><polygon class="cls-1" points="66.94 19.39 61.35 29.07 55.76 19.39 66.94 19.39"/><polygon class="cls-1" points="39.05 67.69 33.47 77.36 27.89 67.69 39.05 67.69"/></mask></defs><g id="Layer_2" data-name="Layer 2"><g id="Main"><g class="cls-2"><rect class="cls-1" width="66.94" height="77.36"/></g></g></g></svg>